ffmpeg version 4.2.7-0ubuntu0.1 Copyright (c) 2000-2022 the FFmpeg developers
  built with gcc 9 (Ubuntu 9.4.0-1ubuntu1~20.04.1)
  configuration: --prefix=/usr --extra-version=0ubuntu0.1 --toolchain=hardened --libdir=/usr/lib/x86_64-linux-gnu --incdir=/usr/include/x86_64-linux-gnu --arch=amd64 --enable-gpl --disable-stripping --enable-avresample --disable-filter=resample --enable-avisynth --enable-gnutls --enable-ladspa --enable-libaom --enable-libass --enable-libbluray --enable-libbs2b --enable-libcaca --enable-libcdio --enable-libcodec2 --enable-libflite --enable-libfontconfig --enable-libfreetype --enable-libfribidi --enable-libgme --enable-libgsm --enable-libjack --enable-libmp3lame --enable-libmysofa --enable-libopenjpeg --enable-libopenmpt --enable-libopus --enable-libpulse --enable-librsvg --enable-librubberband --enable-libshine --enable-libsnappy --enable-libsoxr --enable-libspeex --enable-libssh --enable-libtheora --enable-libtwolame --enable-libvidstab --enable-libvorbis --enable-libvpx --enable-libwavpack --enable-libwebp --enable-libx265 --enable-libxml2 --enable-libxvid --enable-libzmq --enable-libzvbi --enable-lv2 --enable-omx --enable-openal --enable-opencl --enable-opengl --enable-sdl2 --enable-libdc1394 --enable-libdrm --enable-libiec61883 --enable-nvenc --enable-chromaprint --enable-frei0r --enable-libx264 --enable-shared
  libavutil      56. 31.100 / 56. 31.100
  libavcodec     58. 54.100 / 58. 54.100
  libavformat    58. 29.100 / 58. 29.100
  libavdevice    58.  8.100 / 58.  8.100
  libavfilter     7. 57.100 /  7. 57.100
  libavresample   4.  0.  0 /  4.  0.  0
  libswscale      5.  5.100 /  5.  5.100
  libswresample   3.  5.100 /  3.  5.100
  libpostproc    55.  5.100 / 55.  5.100
Routing option strict to both codec and muxer layer
[h264 @ 0x55ddbf665000] Reinit context to 720x944, pix_fmt: yuv420p
Input #0, mov,mp4,m4a,3gp,3g2,mj2, from '/var/www/html/project/media/video/original/YouCut_20240403_191536872_WnTiBLw.mp4':
  Metadata:
    major_brand     : isom
    minor_version   : 512
    compatible_brands: isomiso2avc1mp41
    encoder         : Lavf58.76.100
  Duration: 00:00:42.86, start: 0.000000, bitrate: 4100 kb/s
    Stream #0:0(und): Video: h264 (High), 1 reference frame (avc1 / 0x31637661), yuv420p(tv, unknown/bt470bg/unknown, left), 720x940 (720x944), 3969 kb/s, SAR 4168:4161 DAR 50016:65189, 30.04 fps, 30 tbr, 1000k tbn, 2000k tbc (default)
    Metadata:
      handler_name    : VideoHandler
    Stream #0:1(und): Audio: aac (LC) (mp4a / 0x6134706D), 44100 Hz, stereo, fltp, 125 kb/s (default)
    Metadata:
      handler_name    : SoundHandler
Input #1, png_pipe, from '/var/www/html/project/static/images/templates/logo_vertical.png':
  Duration: N/A, bitrate: N/A
    Stream #1:0: Video: png, 1 reference frame, rgba(pc), 1920x1080 [SAR 2835:2835 DAR 16:9], 25 tbr, 25 tbn, 25 tbc
[Parsed_scale_1 @ 0x55ddbf674d80] w:1280 h:720 flags:'bilinear' interl:0
[Parsed_scale_4 @ 0x55ddbf67e300] w:-1 h:720 flags:'bilinear' interl:0
[Parsed_scale_6 @ 0x55ddbf68c100] w:1280 h:720 flags:'bilinear' interl:0
Stream mapping:
  Stream #0:0 (h264) -> split (graph 0)
  Stream #1:0 (png) -> scale (graph 0)
  overlay (graph 0) -> Stream #0:0 (libx264)
  Stream #0:1 -> #0:1 (aac (native) -> aac (native))
Press [q] to stop, [?] for help
[graph_1_in_0_1 @ 0x55ddbfa52700] tb:1/44100 samplefmt:fltp samplerate:44100 chlayout:0x3
[h264 @ 0x55ddbf690980] Reinit context to 720x944, pix_fmt: yuv420p
[Parsed_scale_1 @ 0x55ddbfef8a40] w:1280 h:720 flags:'bilinear' interl:0
[Parsed_scale_4 @ 0x55ddbfef8cc0] w:-1 h:720 flags:'bilinear' interl:0
[Parsed_scale_6 @ 0x55ddbfefbe40] w:1280 h:720 flags:'bilinear' interl:0
[graph 0 input from stream 0:0 @ 0x55ddbfefdc00] w:720 h:940 pixfmt:yuv420p tb:1/1000000 fr:1000000/33333 sar:4168/4161 sws_param:flags=2
[graph 0 input from stream 1:0 @ 0x55ddbfefec00] w:1920 h:1080 pixfmt:rgba tb:1/25 fr:25/1 sar:2835/2835 sws_param:flags=2
[Parsed_scale_1 @ 0x55ddbfef8a40] w:720 h:940 fmt:yuv420p sar:4168/4161 -> w:1280 h:720 fmt:yuv420p sar:28134/65189 flags:0x2
[Parsed_boxblur_2 @ 0x55ddbfef96c0] luma_radius:36 luma_power:1 chroma_radius:18 chroma_power:1 alpha_radius:36 alpha_power:1 w:1280 chroma_w:640 h:720 chroma_h:360
[Parsed_setsar_3 @ 0x55ddbfefaf80] w:1280 h:720 sar:28134/65189 dar:50016/65189 -> sar:1/1 dar:16/9
[Parsed_scale_4 @ 0x55ddbfef8cc0] w:720 h:940 fmt:yuv420p sar:4168/4161 -> w:551 h:720 fmt:yuva420p sar:36011520/35919139 flags:0x2
[Parsed_setsar_5 @ 0x55ddbfef9b80] w:551 h:720 sar:36011520/35919139 dar:50016/65189 -> sar:1/1 dar:551/720
[Parsed_overlay_8 @ 0x55ddbfefc7c0] main w:1280 h:720 fmt:yuv420p overlay w:551 h:720 fmt:yuva420p
[Parsed_overlay_8 @ 0x55ddbfefc7c0] [framesync @ 0x55ddbfefa8a8] Selected 1/1000000 time base
[Parsed_overlay_8 @ 0x55ddbfefc7c0] [framesync @ 0x55ddbfefa8a8] Sync level 2
[Parsed_scale_6 @ 0x55ddbfefbe40] w:1920 h:1080 fmt:rgba sar:2835/2835 -> w:1280 h:720 fmt:yuva420p sar:1/1 flags:0x2
[Parsed_setsar_7 @ 0x55ddbfefc340] w:1280 h:720 sar:1/1 dar:16/9 -> sar:1/1 dar:16/9
[Parsed_overlay_9 @ 0x55ddbfefce80] main w:1280 h:720 fmt:yuv420p overlay w:1280 h:720 fmt:yuva420p
[Parsed_overlay_9 @ 0x55ddbfefce80] [framesync @ 0x55ddbfefcfa8] Selected 1/1000000 time base
[Parsed_overlay_9 @ 0x55ddbfefce80] [framesync @ 0x55ddbfefcfa8] Sync level 2
[libx264 @ 0x55ddbf6b3380] using SAR=1/1
[libx264 @ 0x55ddbf6b3380] using cpu capabilities: MMX2 SSE2Fast SSSE3 SSE4.2 AVX FMA3 BMI2 AVX2
[libx264 @ 0x55ddbf6b3380] profile High, level 3.2
[libx264 @ 0x55ddbf6b3380] 264 - core 155 r2917 0a84d98 - H.264/MPEG-4 AVC codec - Copyleft 2003-2018 - http://www.videolan.org/x264.html - options: cabac=1 ref=1 deblock=1:0:0 analyse=0x3:0x113 me=hex subme=2 psy=1 psy_rd=1.00:0.00 mixed_ref=0 me_range=16 chroma_me=1 trellis=0 8x8dct=1 cqm=0 deadzone=21,11 fast_pskip=1 chroma_qp_offset=0 threads=22 lookahead_threads=5 sliced_threads=0 nr=0 decimate=1 interlaced=0 bluray_compat=0 constrained_intra=0 bframes=3 b_pyramid=2 b_adapt=1 b_bias=0 direct=1 weightb=1 open_gop=0 weightp=1 keyint=250 keyint_min=25 scenecut=40 intra_refresh=0 rc_lookahead=10 rc=crf mbtree=1 crf=18.0 qcomp=0.60 qpmin=0 qpmax=69 qpstep=4 ip_ratio=1.40 aq=1:1.00
Output #0, mp4, to '/var/www/html/project/media/video/watermarks/YouCut_20240403_191536872_WnTiBLw.mp4':
  Metadata:
    major_brand     : isom
    minor_version   : 512
    compatible_brands: isomiso2avc1mp41
    encoder         : Lavf58.29.100
    Stream #0:0: Video: h264 (libx264), 1 reference frame (avc1 / 0x31637661), yuv420p, 1280x720 [SAR 1:1 DAR 16:9], q=-1--1, 30 fps, 1000k tbn, 30 tbc (default)
    Metadata:
      encoder         : Lavc58.54.100 libx264
    Side data:
      cpb: bitrate max/min/avg: 0/0/0 buffer size: 0 vbv_delay: -1
    Stream #0:1(und): Audio: aac (LC) (mp4a / 0x6134706D), 44100 Hz, stereo, fltp, delay 1024, 128 kb/s (default)
    Metadata:
      handler_name    : SoundHandler
      encoder         : Lavc58.54.100 aac
Past duration 0.707024 too large
[Parsed_overlay_8 @ 0x55ddbfefc7c0] [framesync @ 0x55ddbfefa8a8] Sync level 1
[Parsed_overlay_8 @ 0x55ddbfefc7c0] [framesync @ 0x55ddbfefa8a8] Sync level 0
[Parsed_overlay_9 @ 0x55ddbfefce80] [framesync @ 0x55ddbfefcfa8] Sync level 0
No more output streams to write to, finishing.
frame= 1287 fps= 33 q=-1.0 Lsize=   15166kB time=00:00:42.86 bitrate=2898.4kbits/s speed=1.09x    
[AVIOContext @ 0x55ddbf663280] Statistics: 0 seeks, 77 writeouts
video:15108kB audio:11kB subtitle:0kB other streams:0kB global headers:0kB muxing overhead: 0.306594%
Input file #0 (/var/www/html/project/media/video/original/YouCut_20240403_191536872_WnTiBLw.mp4):
  Input stream #0:0 (video): 1287 packets read (21257363 bytes); 1287 frames decoded; 
  Input stream #0:1 (audio): 1847 packets read (673266 bytes); 1846 frames decoded (1890304 samples); 
  Total: 3134 packets (21930629 bytes) demuxed
Input file #1 (/var/www/html/project/static/images/templates/logo_vertical.png):
  Input stream #1:0 (video): 1 packets read (93903 bytes); 1 frames decoded; 
  Total: 1 packets (93903 bytes) demuxed
Output file #0 (/var/www/html/project/media/video/watermarks/YouCut_20240403_191536872_WnTiBLw.mp4):
  Output stream #0:0 (video): 1287 frames encoded; 1287 packets muxed (15470813 bytes); 
  Output stream #0:1 (audio): 1846 frames encoded (1890304 samples); 1847 packets muxed (11218 bytes); 
  Total: 3134 packets (15482031 bytes) muxed
[AVIOContext @ 0x55ddbf6d9a80] Statistics: 2 seeks, 63 writeouts
[libx264 @ 0x55ddbf6b3380] frame I:6     Avg QP:15.13  size: 55111
[libx264 @ 0x55ddbf6b3380] frame P:388   Avg QP:17.94  size: 22629
[libx264 @ 0x55ddbf6b3380] frame B:893   Avg QP:19.63  size:  7121
[libx264 @ 0x55ddbf6b3380] consecutive B-frames:  4.6%  6.1%  7.9% 81.4%
[libx264 @ 0x55ddbf6b3380] mb I  I16..4: 26.0% 35.4% 38.6%
[libx264 @ 0x55ddbf6b3380] mb P  I16..4: 17.6% 20.8%  4.3%  P16..4: 21.6% 13.0%  7.2%  0.0%  0.0%    skip:15.5%
[libx264 @ 0x55ddbf6b3380] mb B  I16..4:  3.3%  1.8%  0.1%  B16..8: 22.3%  9.0%  1.2%  direct: 8.9%  skip:53.4%  L0:40.9% L1:45.1% BI:14.1%
[libx264 @ 0x55ddbf6b3380] 8x8 transform intra:45.4% inter:30.8%
[libx264 @ 0x55ddbf6b3380] coded y,uvDC,uvAC intra: 36.7% 35.7% 6.1% inter: 11.1% 12.0% 0.8%
[libx264 @ 0x55ddbf6b3380] i16 v,h,dc,p: 32% 34% 10% 24%
[libx264 @ 0x55ddbf6b3380] i8 v,h,dc,ddl,ddr,vr,hd,vl,hu: 14% 40% 17%  4%  5%  4%  7%  4%  5%
[libx264 @ 0x55ddbf6b3380] i4 v,h,dc,ddl,ddr,vr,hd,vl,hu: 23% 29% 15%  5%  6%  5%  7%  4%  6%
[libx264 @ 0x55ddbf6b3380] i8c dc,h,v,p: 58% 24% 13%  6%
[libx264 @ 0x55ddbf6b3380] Weighted P-Frames: Y:4.9% UV:0.3%
[libx264 @ 0x55ddbf6b3380] kb/s:2884.90
[aac @ 0x55ddbf68fbc0] Qavg: 65536.000
[AVIOContext @ 0x55ddbf66c240] Statistics: 22021148 bytes read, 2 seeks
[AVIOContext @ 0x55ddbf689f00] Statistics: 93903 bytes read, 0 seeks
